. 
 
http://www.torrenting.com          :     Once & For all ;)


               www . Torrenting . Com 

(((((((((((((= Enjoy No RAR releases =))))))))))))))))))))


...................................NFO:....................................

.                                                                                                     
       
     
     
       
       
     
     
                                         
                                         
                EXVID                    
                                         
         
                                         
         Filled the Archives             
                                         
         
                                         
                With:                    
                                         
         
                                         
                                    
     E240                           
                                    
     SP               (C) 2009      
                                         
     
     
     
                                                                                  
                                                                                   
             The.Machinist.2004.iNTERNAL.BDRip.XviD-EXViDiNT                        
                                                                                   
                                                                                  
     
                                                                                               
EXViD aims to iNTERNAL those releases which have been lost in the archives.
EXViD aims to PRE non-internal releases which have poor sources and are likely skipped by others. 
http://www.imdb.com/title/tt0361862/
Subtitles: EN, ES, FR, PT
Date: 2012.01

Director: Brad Anderson

Genre: Drama | Mystery | Thriller

Plot:
An industrial worker who hasn't slept in a year begins to doubt his own sanity. 

Cast:
Christian Bale	 	... 	Trevor Reznik
Jennifer Jason Leigh 	... 	Stevie
Aitana Snchez-Gijn 	... 	Marie
John Sharian 		... 	Ivan
Michael Ironside 	... 	Miller
Lawrence Gilliard Jr. 	... 	Jackson (as Larry Gilliard)
Reg E. Cathey 		... 	Jones
Anna Massey 		... 	Mrs. Shrike
Matthew Romero Moore 	... 	Nicholas (as Matthew Romero)
Robert Long 		... 	Supervisor Furman
Colin Stinton 		... 	Inspector Rogers
Craig Stevenson 	... 	Tucker
Ferran Lahoz 		... 	Gonzales
Jeremy Xido 		... 	Evangelisti
Norman Bell 		... 	DMV Clerk 

Stats:
Format                                   : AVI
Format/Info                              : Audio Video Interleave
File size                                : 701 MiB
Duration                                 : 1h 41mn
Overall bit rate mode                    : Variable
Overall bit rate                         : 962 Kbps

Video
ID                                       : 0
Format                                   : MPEG-4 Visual
Format profile                           : Advanced Simple@L5
Format settings, BVOP                    : 2
Format settings, QPel                    : No
Format settings, GMC                     : No warppoints
Format settings, Matrix                  : Default (H.263)
Codec ID                                 : XVID
Codec ID/Hint                            : XviD
Duration                                 : 1h 41mn
Bit rate                                 : 827 Kbps
Width                                    : 640 pixels
Height                                   : 272 pixels
Display aspect ratio                     : 2.35:1
Frame rate                               : 23.976 fps
Color space                              : YUV
Chroma subsampling                       : 4:2:0
Bit depth                                : 8 bits
Scan type                                : Progressive
Compression mode                         : Lossy
Bits/(Pixel*Frame)                       : 0.198
Stream size                              : 603 MiB (86%)
Writing library                          : XviD 64

Audio
ID                                       : 1
Format                                   : MPEG Audio
Format version                           : Version 1
Format profile                           : Layer 3
Mode                                     : Joint stereo
Codec ID                                 : 55
Codec ID/Hint                            : MP3
Duration                                 : 1h 41mn
Bit rate mode                            : Variable
Bit rate                                 : 123 Kbps
Channel(s)                               : 2 channels
Sampling rate                            : 48.0 KHz
Compression mode                         : Lossy
Stream size                              : 89.4 MiB (13%)
Alignment                                : Aligned on interleaves
Interleave, duration                     : 24 ms (0.58 video frame)
Interleave, preload duration             : 192 ms


Release notes:
Enjoy!


Looking for:
75TB+ Archives
DUTCH/FLEMiSH Archives
                                                                                                    
Greets: CRBS EPiSODE FiCO FLS iLS KLASSiGER LiPSYNC MADE NODLABS RUNNER SPRiNTER      
   

                                                                    ASCII DONE BY XX^NFO 2oo9